<?xml version="1.0" standalone="no"?>
<!DOCTYPE svg PUBLIC "-//W3C//DTD SVG 20010904//EN"
 "http://www.w3.org/TR/2001/REC-SVG-20010904/DTD/svg10.dtd">
<svg version="1.0" xmlns="http://www.w3.org/2000/svg"
 width="930.000000pt" height="930.000000pt" viewBox="0 0 930.000000 930.000000"
 preserveAspectRatio="xMidYMid meet">
<metadata>
Created by potrace 1.14, written by Peter Selinger 2001-2017
</metadata>
<g transform="translate(0.000000,930.000000) scale(0.100000,-0.100000)"
fill="#000000" stroke="none">
<path d="M1820 7560 c-4 -3 -68 -108 -140 -235 -73 -126 -166 -288 -208 -360
-41 -71 -83 -143 -92 -160 -18 -32 -205 -356 -325 -565 -40 -69 -152 -264
-250 -435 -98 -170 -235 -409 -305 -530 -70 -121 -138 -240 -152 -265 -14 -25
-72 -125 -128 -222 l-102 -177 57 -98 c31 -54 60 -105 65 -113 5 -8 86 -148
179 -310 93 -162 253 -441 356 -620 103 -179 195 -338 203 -355 8 -16 23 -41
32 -55 9 -14 30 -47 45 -75 15 -27 94 -165 175 -305 81 -140 158 -275 172
-300 32 -57 36 -64 219 -380 84 -146 162 -282 173 -302 l21 -38 1328 0 1329 0
-24 42 c-28 50 -19 33 -220 383 -85 149 -180 313 -210 365 -30 52 -66 115 -80
140 -14 25 -76 133 -138 240 -92 159 -219 379 -471 818 -11 17 -29 49 -40 70
-12 20 -82 143 -157 272 -75 129 -142 246 -149 260 -8 14 -25 43 -39 65 -13
22 -27 47 -31 55 -4 8 -24 43 -45 78 -21 34 -38 65 -38 67 0 3 -11 23 -25 45
-14 22 -25 44 -25 50 0 6 51 99 114 208 100 175 361 627 406 707 10 17 86 149
170 295 344 597 384 666 403 700 10 19 23 40 27 45 4 6 20 33 35 60 70 129
171 300 177 303 5 2 8 8 8 14 0 6 15 36 34 67 19 31 47 79 63 107 15 28 66
117 113 198 125 216 139 240 139 246 1 7 -2638 7 -2649 0z"/>
<path d="M4813 7560 l-43 -5 110 -189 c61 -104 110 -190 110 -191 0 -2 36 -65
81 -141 44 -77 91 -157 104 -179 12 -22 64 -112 115 -200 50 -88 102 -178 114
-200 13 -22 65 -112 116 -200 51 -88 104 -180 118 -205 14 -25 74 -130 135
-235 60 -104 119 -206 129 -225 23 -41 125 -218 138 -240 5 -8 49 -85 98 -170
49 -85 141 -246 205 -356 65 -111 117 -206 117 -213 0 -6 -75 -140 -166 -298
-91 -159 -176 -306 -189 -328 -31 -55 -44 -79 -190 -330 -70 -121 -137 -238
-150 -261 -13 -23 -73 -127 -134 -233 -61 -106 -111 -195 -111 -198 0 -4 -6
-14 -14 -22 -7 -9 -28 -43 -46 -76 -17 -33 -35 -64 -40 -70 -4 -5 -18 -30 -32
-55 -14 -25 -78 -137 -143 -250 -112 -195 -165 -286 -337 -585 -41 -71 -89
-156 -107 -187 l-32 -58 1328 0 1328 0 70 123 c38 67 75 131 81 142 9 16 192
334 405 703 11 17 29 49 40 70 12 20 72 125 134 232 62 107 174 303 250 435
76 132 188 328 250 435 62 107 122 211 133 231 11 19 55 96 97 170 43 74 89
154 103 179 14 25 33 57 43 72 11 14 19 28 19 31 0 3 16 33 36 67 l37 61 -108
187 c-60 103 -116 201 -125 217 -10 17 -50 86 -90 155 -40 69 -84 145 -98 170
-14 25 -50 88 -80 140 -30 52 -65 114 -78 137 -13 23 -53 92 -89 153 -36 61
-65 113 -65 115 0 2 -22 40 -50 85 -27 45 -50 83 -50 84 0 2 -57 102 -126 222
-70 121 -138 239 -152 264 -13 25 -28 50 -32 55 -4 6 -21 35 -38 65 -16 30
-66 117 -111 194 -44 76 -81 140 -81 142 0 2 -18 33 -40 69 -22 36 -40 67 -40
69 0 2 -17 33 -38 67 -21 35 -52 89 -69 119 -16 30 -50 89 -74 130 -25 41 -48
83 -52 93 -3 9 -14 17 -24 18 -87 4 -2568 3 -2600 -1z"/>
</g>
</svg>
